<svg xmlns="http://www.w3.org/2000/svg" width="30" height="30" viewBox="0 0 30 30">
    <defs>
        <linearGradient id="prefix__a" x1="50%" x2="50%" y1="-66.345%" y2="125.004%">
            <stop offset="0%" stop-color="#FFD3B3"/>
            <stop offset="100%" stop-color="#FFA77C"/>
        </linearGradient>
        <linearGradient id="prefix__b" x1="50%" x2="50%" y1="-66.345%" y2="125.004%">
            <stop offset="0%" stop-color="#FFD3B3"/>
            <stop offset="100%" stop-color="#EF6E2E"/>
        </linearGradient>
    </defs>
    <g fill="none" fill-rule="evenodd">
        <path fill="url(#prefix__a)" d="M24 15c-3.866 0-7 2.751-7 6.145 0 1.251.427 2.414 1.158 3.385-.096 1.121-.373 2.7-1.158 3.47 0 0 2.4-.33 4.026-1.291.903.372 1.91.582 2.974.582 3.866 0 7-2.751 7-6.146C31 17.751 27.866 15 24 15z" transform="matrix(-1 0 0 1 48 0)"/>
        <g stroke-linecap="round" stroke-linejoin="round">
            <path fill="url(#prefix__b)" stroke="#FFF" stroke-width="1.5" d="M13 0C5.82 0 0 5.291 0 11.818c0 2.406.792 4.642 2.15 6.508C1.972 20.483 1.46 23.52 0 25c0 0 4.457-.634 7.476-2.483 1.677.717 3.549 1.12 5.524 1.12 7.18 0 13-5.292 13-11.819C26 5.291 20.18 0 13 0z" transform="translate(1 3)"/>
            <g fill="#FFF" transform="translate(1 3) translate(7 10)">
                <circle cx="1.5" cy="1.5" r="1.5"/>
                <circle cx="6.5" cy="1.5" r="1.5"/>
                <circle cx="11.5" cy="1.5" r="1.5"/>
            </g>
        </g>
    </g>
</svg>
