<svg xmlns="http://www.w3.org/2000/svg" width="24" height="24" viewBox="0 0 24 24">
  <g fill="#B4B4B4" fill-rule="evenodd">
    <path
      d="M6.365 17.277V8.415L.193 1.24C-.137.834-.1 0 .753 0h16.464c.801 0 .987.738.56 1.24l-6.023 6.985v5.483c0 .224-.075.414-.264.563l-3.852 3.568c-.446.332-1.273.153-1.273-.562zM2.4 1.505l5.278 6.12c.111.15.185.302.185.488v7.473l2.394-2.18V7.965c0-.186.074-.339.186-.488l5.125-5.971H2.4z"
      transform="translate(-548 -1737) translate(515 1707) translate(13 10) translate(20) translate(0 17) translate(0 3) translate(3 4)" />
  </g>
</svg>
