<svg xmlns="http://www.w3.org/2000/svg" width="24" height="24"><path fill="#6C6C6C" d="M12 2.5c5.788 0 10.5 4.232 10.5 9.482 0 5.25-4.712 9.482-10.5 9.482-1.554 0-3.062-.307-4.444-.89l.232.092-.124.074c-.237.13-.487.253-.749.372l-.4.173-.418.165c-.883.334-1.824.601-2.765.808a21.59 21.59 0 01-.91.18l-.352.057a.5.5 0 01-.424-.848c.841-.843 1.329-2.6 1.51-4.76l-.017.178-.094-.133a8.784 8.784 0 01-1.538-4.596l-.007-.354C1.5 6.732 6.212 2.5 12 2.5zm0 1c-5.258 0-9.5 3.81-9.5 8.482 0 1.674.546 3.277 1.557 4.65a.5.5 0 01.095.338c-.14 1.67-.444 3.118-.98 4.202l-.057.11c.72-.159 1.437-.353 2.121-.585l.507-.182a10.74 10.74 0 001.749-.83.5.5 0 01.453-.033 10.41 10.41 0 004.055.812c5.258 0 9.5-3.81 9.5-8.482C21.5 7.31 17.258 3.5 12 3.5zM8 11a1 1 0 110 2 1 1 0 010-2zm4 0a1 1 0 110 2 1 1 0 010-2zm4 0a1 1 0 110 2 1 1 0 010-2z"/></svg>
