<svg xmlns="http://www.w3.org/2000/svg" width="24" height="24"><path fill="#6C6C6C" fill-rule="evenodd" d="M12 4.5c5.112 0 9.652 2.935 11.462 7.309a.5.5 0 010 .382C21.652 16.565 17.112 19.5 12 19.5S2.348 16.565.538 12.191a.5.5 0 010-.382C2.348 7.435 6.888 4.5 12 4.5zm0 1c-4.713 0-8.885 2.697-10.538 6.691l.081-.19.033.072c1.646 3.671 5.444 6.187 9.792 6.41l.319.013.313.004c4.713 0 8.885-2.697 10.538-6.691l-.051.117-.031.073-.032-.072c-1.686-3.76-5.63-6.31-10.11-6.423zm0 2c2.516 0 4.5 1.984 4.5 4.5s-1.984 4.5-4.5 4.5A4.461 4.461 0 017.5 12c0-2.516 1.984-4.5 4.5-4.5zm0 1A3.461 3.461 0 008.5 12c0 1.964 1.536 3.5 3.5 3.5s3.5-1.536 3.5-3.5-1.536-3.5-3.5-3.5z"/></svg>
