<svg xmlns="http://www.w3.org/2000/svg" xmlns:xlink="http://www.w3.org/1999/xlink" width="148" height="34" viewBox="0 0 148 34">
    <defs>
        <path id="a" d="M43.856 5.634v4.982h5.224V5.672c0-.537.368-.805 1.105-.805.711 0 1.07.268 1.07.805v4.757c0 1.05-.844 1.571-2.53 1.571v3.036c.976 0 1.64.128 1.995.383.355.257.535.74.535 1.454v6.217c0 .663-.359.992-1.07.992-.712 0-1.067-.329-1.067-.992v-6.367h-5.415v6.404c0 3.395 2.25 5.093 6.746 5.093 4.43 0 6.647-1.865 6.647-5.6v-3.987c0-2.71-1.047-4.37-3.145-4.983 2.035-.736 3.053-2.18 3.053-4.326v-3.69c0-1.65-.655-2.853-1.966-3.614-1.309-.762-2.841-1.143-4.6-1.143-4.388 0-6.582 1.585-6.582 4.757zm-14.475 0v2.81c0 2.735.983 4.407 2.957 5.02-2.074.485-3.11 1.864-3.11 4.138v5.525c0 3.395 2.235 5.093 6.704 5.093 4.508 0 6.762-1.698 6.762-5.093v-5.525c0-2.26-1.035-3.64-3.108-4.139 1.972-.612 2.958-2.284 2.958-5.019v-2.81c0-1.65-.654-2.853-1.966-3.614-1.311-.762-2.846-1.143-4.61-1.143-4.393 0-6.587 1.585-6.587 4.757zm5.597 5.34V5.37c0-.536.332-.804.99-.804.652 0 .977.268.977.804v5.602c0 .536-.325.803-.977.803-.658 0-.99-.267-.99-.803zm0 12.697v-7.83c0-.536.332-.805.99-.805.652 0 .977.27.977.805v7.83c0 .537-.325.804-.977.804-.658 0-.99-.267-.99-.804zM24.896 8.03l-2.25 7.108-1.984-7.108h-4.204c1.118 3.672 1.966 6.382 2.545 8.124.67 2.062 1.05 3.446 1.133 4.153v7.773h4.404V20.15l4.32-12.12h-3.964zm-14.94 0L8.208 18.434 6.194 8.029H.53v20.05h3.441V16.824L6.6 28.079h3.034l2.294-11.255v11.255h3.928V8.03H9.956z"/>
        <path id="c" d="M1.935 3.17A18.817 18.817 0 0 1 .277 5.91l.887.889c.312-.488.61-.96.887-1.423v6.536h1.15V3.195c.288-.635.586-1.364.9-2.191.236-.07.354-.17.354-.3 0-.062-.058-.119-.172-.169L3.2.01c-.417 1.264-.84 2.315-1.265 3.16zm2.7-2.585v4.178h2.623v1.146H3.67v1.045h3.145c-.539.818-1.009 1.423-1.41 1.814-.53.55-1.198 1.013-1.995 1.396l.938 1.072c.87-.612 1.53-1.21 1.972-1.802.312-.367.626-.8.938-1.305v3.783H8.42V7.961c.312.539.669 1.034 1.07 1.485a10.265 10.265 0 0 0 2.102 1.84l1.006-1.043c-.9-.488-1.62-.969-2.169-1.45-.486-.46-.993-1.072-1.525-1.839h3.224V5.91H8.42V4.763h2.637V.585H4.636zm1.201 3.133h4.02V1.63h-4.02v2.088z"/>
        <path id="e" d="M6.497 2.618c-.69.539-1.477 1.009-2.376 1.41l.978.846c.408-.234.78-.46 1.11-.679v.654h4.803V4.17c.381.217.79.417 1.225.598l.914-1.07c-.894-.224-1.584-.477-2.063-.757-.512-.27-1.138-.738-1.878-1.407l.04-.04c.234-.061.353-.127.353-.196 0-.086-.071-.156-.211-.21L8.415.7c-.653.782-1.293 1.423-1.918 1.919zm.936.665c.35-.303.706-.641 1.072-1.004.524.503 1.056.95 1.606 1.342.166.104.344.217.534.34h-4.07c.33-.236.617-.46.858-.678zM3.796 1.299H.806v11.72h1.097V2.289H3.56L2.437 5.423c.706.974 1.056 1.76 1.056 2.362 0 .488-.091.861-.272 1.123-.184.286-.597.487-1.241.6l.47 1.109c.635 0 1.151-.24 1.553-.718.402-.494.6-1.163.6-1.996 0-.792-.343-1.659-1.028-2.596l1.367-3.406-.978-.758c-.033 0-.09.052-.168.156zM8.95 8.921h3.288V5.63H8.949v3.29zm1.096-.888h1.097V6.519h-1.097v1.514zm-5.063.888H8.22V5.63H4.982v3.29zm1.097-.888h1.045V6.519H6.079v1.514zm3.303 2.962a4.062 4.062 0 0 1-1.397 1.318l.964.653c.496-.358.9-.757 1.213-1.202.053-.059.102-.13.144-.209.497.488 1.07.924 1.723 1.306l.86-.926c-.824-.322-1.535-.73-2.127-1.228.105-.235.215-.506.326-.82.158-.08.236-.157.236-.238 0-.058-.068-.11-.208-.154l-1.005-.237c-.217.75-.462 1.327-.73 1.737zm-4.112-.09a4.133 4.133 0 0 1-1.464 1.25l.968.654c.523-.34.948-.722 1.279-1.149.077-.105.157-.217.235-.338a9.07 9.07 0 0 0 1.109 1.018l.953-.757a6.551 6.551 0 0 1-1.58-1.149c.088-.156.169-.338.248-.548.157-.078.234-.156.234-.237 0-.058-.07-.11-.208-.154l-1.005-.237c-.226.707-.484 1.255-.77 1.648z"/>
        <path id="g" d="M1.575 2.957a3.798 3.798 0 0 0-.326-.208l-.652.821c.583.408 1.231.891 1.944 1.448L1.379 6.74c-.26.019-.523.034-.782.052l.272 1.125c.01.112.057.168.145.168.078 0 .157-.067.235-.21.452-.058.868-.121 1.253-.18v5.217h1.096V7.536l.718-.117c.053.226.103.457.157.693l.847-.172v2.456a20.814 20.814 0 0 0-.419-1.66l-1.068.236c.234.836.432 1.75.586 2.741l.9-.182v1.381h1.099V7.823h.911v1.958c0 .42.266.628.797.628h2.805v-.94H8.636c-.176 0-.263-.064-.263-.196v-1.45h2.925v3.578c0 .268-.14.41-.417.429l-.992.027.43 1.055c.408 0 .821-.059 1.237-.18.524-.15.786-.482.786-1.006V1.403H5.32v5.65c-.12-.45-.277-.917-.471-1.395l-1.016.223c.068.199.138.403.207.611-.45.054-.917.096-1.394.13l2.126-2.87c.176-.027.262-.087.262-.182s-.048-.17-.144-.222l-.85-.561-.873 1.304a11.929 11.929 0 0 0-.756-.547l1.226-1.75c.167-.069.248-.155.248-.259 0-.054-.066-.114-.195-.183L2.8.908 1.575 2.957zm4.843-.561h4.88V4.56h-1.03l.401-1.082c.175-.104.262-.2.262-.288 0-.087-.073-.143-.22-.169l-.836-.182-.652 1.721h-.77a7.175 7.175 0 0 0-.784-1.721l-.965.208c.262.462.486.965.678 1.513h-.964V2.396zM9.315 6.83h1.983V5.5H9.315v1.33zm-2.897 0h1.85V5.5h-1.85v1.33zm-5.6 3.682a6.75 6.75 0 0 1-.378 1.122l1.044.393c.243-.715.444-1.559.6-2.533.156-.122.234-.228.234-.314s-.05-.134-.155-.143l-1.03-.302c-.08.653-.184 1.247-.315 1.777z"/>
    </defs>
    <g fill="none" fill-rule="evenodd">
        <g fill-rule="nonzero" transform="translate(-2.607 -4)">
            <ellipse cx="23.311" cy="21.022" fill="#EF6E2E" rx="18.543" ry="15.595" transform="rotate(-19.33 23.31 21.022)"/>
            <ellipse cx="16.096" cy="13.268" fill="#FFF" rx="3.354" ry="3.396"/>
            <ellipse cx="30.334" cy="13.268" fill="#FFF" rx="3.354" ry="3.396"/>
            <path fill="#FFF" d="M30.7 17.644c-.984-.085-1.649.438-2.348 1.165-.133.139-4.99 4.807-4.99 4.807s-5.039-4.709-5.172-4.844c-.687-.7-1.369-1.219-2.346-1.126-1.31.124-2.28 1.295-2.28 2.622v9.703c0 1.356 1.015 2.54 2.356 2.629.698.046 1.383-.2 1.893-.682.51-.482.8-1.155.8-1.86v-5.137l3.366 3.102c.802.739 2.033.73 2.825-.02l3.15-2.98v4.947c0 1.356 1.016 2.54 2.358 2.629.697.046 1.382-.2 1.892-.682.51-.482.8-1.155.8-1.86v-9.786c-.002-1.334-.984-2.512-2.304-2.627z"/>
        </g>
        <g transform="translate(42 3)">
            <mask id="b" fill="#fff">
                <use xlink:href="#a"/>
            </mask>
            <path fill="#333" d="M-.02 28.771h57.666V.328H-.02z" mask="url(#b)"/>
        </g>
        <g transform="translate(101.433 18.189)">
            <mask id="d" fill="#fff">
                <use xlink:href="#c"/>
            </mask>
            <path fill="#333" d="M-.344 12.532h13.56V-.61H-.344z" mask="url(#d)"/>
        </g>
        <g transform="translate(115.554 17.189)">
            <mask id="f" fill="#fff">
                <use xlink:href="#e"/>
            </mask>
            <path fill="#333" d="M.185 13.639H13.77V.079H.185z" mask="url(#f)"/>
        </g>
        <g transform="translate(129.676 17.189)">
            <mask id="h" fill="#fff">
                <use xlink:href="#g"/>
            </mask>
            <path fill="#333" d="M-.182 13.532h13.144V.288H-.182z" mask="url(#h)"/>
        </g>
    </g>
</svg>
