<svg xmlns="http://www.w3.org/2000/svg" xmlns:xlink="http://www.w3.org/1999/xlink" width="148" height="34" viewBox="0 0 148 34">
    <defs>
        <path id="prefix__a" d="M43.856 5.634v4.982h5.224V5.672c0-.537.368-.805 1.105-.805.711 0 1.07.268 1.07.805v4.757c0 1.05-.844 1.571-2.53 1.571v3.036c.976 0 1.64.128 1.995.383.355.257.535.74.535 1.454v6.217c0 .663-.359.992-1.07.992-.712 0-1.067-.329-1.067-.992v-6.367h-5.415v6.404c0 3.395 2.25 5.093 6.746 5.093 4.43 0 6.647-1.865 6.647-5.6v-3.987c0-2.71-1.047-4.37-3.145-4.983 2.035-.736 3.053-2.18 3.053-4.326v-3.69c0-1.65-.655-2.853-1.966-3.614-1.309-.762-2.841-1.143-4.6-1.143-4.388 0-6.582 1.585-6.582 4.757zm-14.475 0v2.81c0 2.735.983 4.407 2.957 5.02-2.074.485-3.11 1.864-3.11 4.138v5.525c0 3.395 2.235 5.093 6.704 5.093 4.508 0 6.762-1.698 6.762-5.093v-5.525c0-2.26-1.035-3.64-3.108-4.139 1.972-.612 2.958-2.284 2.958-5.019v-2.81c0-1.65-.654-2.853-1.966-3.614-1.311-.762-2.846-1.143-4.61-1.143-4.393 0-6.587 1.585-6.587 4.757zm5.597 5.34V5.37c0-.536.332-.804.99-.804.652 0 .977.268.977.804v5.602c0 .536-.325.803-.977.803-.658 0-.99-.267-.99-.803zm0 12.697v-7.83c0-.536.332-.805.99-.805.652 0 .977.27.977.805v7.83c0 .537-.325.804-.977.804-.658 0-.99-.267-.99-.804zM24.896 8.03l-2.25 7.108-1.984-7.108h-4.204c1.118 3.672 1.966 6.382 2.545 8.124.67 2.062 1.05 3.446 1.133 4.153v7.773h4.404V20.15l4.32-12.12h-3.964zm-14.94 0L8.208 18.434 6.194 8.029H.53v20.05h3.441V16.824L6.6 28.079h3.034l2.294-11.255v11.255h3.928V8.03H9.956z"/>
    </defs>
    <g fill="none" fill-rule="evenodd">
        <g fill-rule="nonzero" transform="translate(-3 -4) translate(.393)">
            <ellipse cx="23.311" cy="21.022" fill="#EF6E2E" rx="18.543" ry="15.595" transform="rotate(-19.33 23.31 21.022)"/>
            <ellipse cx="16.096" cy="13.268" fill="#FFF" rx="3.354" ry="3.396"/>
            <ellipse cx="30.334" cy="13.268" fill="#FFF" rx="3.354" ry="3.396"/>
            <path fill="#FFF" d="M30.7 17.644c-.984-.085-1.649.438-2.348 1.165-.133.139-4.99 4.807-4.99 4.807s-5.039-4.709-5.172-4.844c-.687-.7-1.369-1.219-2.346-1.126-1.31.124-2.28 1.295-2.28 2.622v9.703c0 1.356 1.015 2.54 2.356 2.629.698.046 1.383-.2 1.893-.682.51-.482.8-1.155.8-1.86v-5.137l3.366 3.102c.802.739 2.033.73 2.825-.02l3.15-2.98v4.947c0 1.356 1.016 2.54 2.358 2.629.697.046 1.382-.2 1.892-.682.51-.482.8-1.155.8-1.86v-9.786c-.002-1.334-.984-2.512-2.304-2.627z"/>
        </g>
        <g transform="translate(-3 -4) translate(45 7)">
            <use fill="#333" xlink:href="#prefix__a"/>
        </g>
        <path fill="#333" d="M108.315 34.001v-8.788c.507-.871.949-1.794 1.326-2.717l-1.131-.364c-.715 1.911-1.911 3.783-3.172 4.979.221.286.559.936.676 1.222.39-.39.78-.858 1.144-1.352v7.02h1.157zm5.564.039v-4.641h3.536v-1.105h-3.536v-1.365h2.834v-4.238h-6.721v4.238h2.678v1.365h-3.588v1.105h3.588v4.641h1.209zm1.625-8.19h-4.381v-2.093h4.381v2.093zm1.014 7.488l.975-.598c-.429-.767-1.3-1.937-2.093-2.834l-.91.507c.754.897 1.638 2.132 2.028 2.925zm-6.695.091c.702-.819 1.534-2.067 2.106-3.172l-1.092-.338c-.494 1.001-1.248 2.093-1.95 2.834.273.143.728.481.936.676zm13.617-7.384c.455-.26.91-.546 1.339-.858v.754h3.835v-.897c.637.39 1.274.715 1.872.988.091-.325.325-.845.52-1.131-1.3-.442-2.847-1.274-3.796-2.119.091-.13.182-.273.273-.416l-1.17-.39c-.741 1.196-2.132 2.444-3.666 3.25.247.182.624.585.793.819zm-2.912 7.956V23.705h1.274c-.221.858-.52 1.95-.806 2.808.767.975.936 1.846.936 2.496 0 .39-.065.715-.234.845-.091.078-.208.104-.338.117-.182.013-.377 0-.624-.013.169.286.247.754.26 1.04.286.013.585.013.806-.013.26-.052.468-.13.663-.26.338-.273.494-.832.494-1.599 0-.754-.182-1.69-.962-2.73.364-1.027.767-2.314 1.105-3.393l-.754-.429-.156.039h-2.678v11.388h1.014zm7.995-9.009h-3.484c.559-.429 1.079-.923 1.547-1.43.559.494 1.248 1.001 1.937 1.43zm1.612 4.927v-3.172h-3.068v3.172h3.068zm-3.77 0v-3.172h-3.003v3.172h3.003zm2.821-.845h-1.209v-1.482h1.209v1.482zm-3.77 0h-1.144v-1.482h1.144v1.482zm1.43 4.953c.624-.442 1.131-1.014 1.521-1.729.702.52 1.43 1.118 1.846 1.547l.715-.832c-.455-.455-1.352-1.118-2.132-1.638.13-.338.221-.702.312-1.092l-1.092-.143c-.26 1.352-.923 2.457-1.963 3.107.247.182.65.598.793.78zm-4.03.039c.741-.507 1.391-1.183 1.898-2.002.468.338.936.728 1.183 1.014l.624-.806c-.286-.312-.845-.728-1.352-1.027.117-.286.234-.572.325-.884l-1.053-.208c-.416 1.339-1.261 2.444-2.418 3.12.234.195.637.585.793.793zm10.133-4.095c.273-.143.663-.247 3.406-.676.065.221.117.416.143.585l.871-.351c-.156-.611-.533-1.651-.871-2.444l-.793.299c.13.325.26.702.377 1.053l-1.859.26c.988-1.196 1.963-2.691 2.743-4.16l-.91-.572c-.273.598-.611 1.222-.936 1.807l-1.17.091c.663-.962 1.326-2.184 1.846-3.341l-.988-.416c-.494 1.391-1.326 2.834-1.586 3.224-.247.377-.468.637-.689.702.13.273.273.78.338.988.182-.078.442-.143 1.651-.286-.416.637-.78 1.131-.962 1.339-.377.494-.663.806-.936.884.117.273.286.793.325 1.014zm5.577 4.069V23.744h4.563v9.009c0 .182-.052.234-.221.247l-.263-.001c-.238-.002-.582-.008-.92-.025.143.286.286.767.325 1.04.793.013 1.352-.013 1.703-.195.338-.182.455-.481.455-1.066V22.691h-6.708V34.04h1.066zm1.235-7.943l.754-.26c-.078-.481-.338-1.222-.624-1.781l-.715.234c.273.559.52 1.326.585 1.807zm2.171 5.486c.312 0 .637-.013.819-.065-.039-.247-.065-.598-.078-.858-.182.052-.546.065-.754.065h-1.3c-.234 0-.286-.117-.286-.416v-1.066h2.353v-.949h-1.755l.481-.195c-.104-.26-.299-.689-.494-1.027h1.885v-.936h-.897c.182-.533.403-1.222.585-1.82l-.858-.234c-.104.598-.338 1.469-.52 2.054h-2.288v.936h1.911l-.676.221c.156.312.325.702.429 1.001h-1.56v.949h.429v1.053c0 .923.221 1.287 1.17 1.287h1.404zm-5.421 1.222l.819-.299c-.143-.663-.455-1.664-.754-2.457l-.767.26c.273.793.585 1.82.702 2.496zm-1.794.52l.871-.221c-.039-.741-.182-1.846-.351-2.717l-.819.195c.143.871.273 2.002.299 2.743zm-1.352.429c.247-.806.468-2.002.598-3.133l-.923-.169c-.091 1.053-.273 2.197-.559 2.964.234.065.676.221.884.338z" transform="translate(-3 -4)"/>
    </g>
</svg>
