<svg xmlns="http://www.w3.org/2000/svg" width="18" height="18"><g fill="none" fill-rule="evenodd" stroke="#6C6C6C" stroke-linecap="round" stroke-linejoin="round"><path d="M3.595 9.407l-1.617-.018c-.317 0-.574-.286-.574-.638V2.999c0-.353.257-.639.574-.639h2.06C5.78 2.35 5.78 3.656 5.78 4.008V8.09c0 .352-.663 1.32-2.185 1.317z"/><path d="M16.145 8.8s-.567-6.486-2.837-6.69c-1.661-.15-4.207 0-4.207 0-1.351.166-2.173.665-3.321 1.094v5.38s3.029 2.354 3.752 6.503a.59.59 0 00.507.494c.542.062 1.285-.03 1.411-1.153.318-2.828-.605-4.056-.605-4.056-.09-.309-.904-.339-.904-.339l4.273.06c.878-.033 1.93-.35 1.93-1.293"/></g></svg>
