<svg xmlns="http://www.w3.org/2000/svg" width="18" height="18" viewBox="0 0 18 18">
  <g fill="#FFF" fill-rule="evenodd">
    <path
      d="M4.95 13.438V6.545L.15.965C-.107.649-.078 0 .586 0h12.805c.623 0 .768.574.436.965L9.142 6.397v4.265c0 .174-.058.322-.205.437L5.94 13.875c-.347.258-.99.119-.99-.437zM1.868 1.17l4.104 4.76c.087.117.145.235.145.38v5.812l1.861-1.695V6.194c0-.144.058-.263.145-.38l3.986-4.644H1.868z"
      transform="translate(-1083 -1883) translate(955 1876) translate(128 7) translate(2 3)" />
  </g>
</svg>
