<svg xmlns="http://www.w3.org/2000/svg" width="18" height="18"><path fill="#6C6C6C" fill-rule="evenodd" d="M9.28 1.5c4.284 0 7.779 3.127 7.779 7.015 0 3.887-3.495 7.015-7.78 7.015a8.456 8.456 0 01-3.287-.657l.232.092-.036.023c-.176.095-.36.187-.554.274l-.296.128-.308.121c-.65.245-1.34.44-2.031.591-.242.053-.466.097-.668.132l-.262.042a.5.5 0 01-.422-.849c.582-.58.93-1.83 1.059-3.366l-.01.09-.008.087-.061-.086a6.5 6.5 0 01-1.12-3.338l-.007-.3C1.5 4.628 4.995 1.5 9.28 1.5zm0 1C5.523 2.5 2.5 5.206 2.5 8.515c0 1.184.388 2.318 1.106 3.29a.503.503 0 01.096.34c-.087 1.035-.26 1.956-.552 2.701l-.089.214.208-.048c.322-.081.64-.173.95-.275l.458-.161c.47-.178.892-.375 1.251-.592a.501.501 0 01.452-.032c.9.378 1.884.578 2.9.578 3.755 0 6.779-2.706 6.779-6.015 0-3.309-3.024-6.015-6.78-6.015zM6.631 7.906a.66.66 0 01.662.657.659.659 0 01-.662.656.659.659 0 01-.661-.656c0-.363.296-.657.661-.657zm2.647 0a.66.66 0 01.662.657.659.659 0 01-.662.656.659.659 0 01-.661-.656c0-.363.296-.657.661-.657zm2.647 0a.66.66 0 01.662.657.659.659 0 01-.662.656.659.659 0 01-.661-.656c0-.363.296-.657.661-.657z"/></svg>
